<?xml version="1.0" encoding="UTF-8"?>
<svg width="800" height="700" xmlns="http://www.w3.org/2000/svg">
  <rect width="100%" height="100%" fill="white"/>
  
  <!-- Nodes -->
  <rect x="350" y="50" width="120" height="60" rx="10" ry="10" fill="#f9f" stroke="#333" stroke-width="2"/>
  <text x="410" y="85" text-anchor="middle">Login Page</text>
  
  <rect x="350" y="150" width="120" height="60" rx="10" ry="10" fill="#fff" stroke="#333" stroke-width="2"/>
  <text x="410" y="185" text-anchor="middle">Authentication</text>
  
  <rect x="350" y="250" width="120" height="60" rx="10" ry="10" fill="#bbf" stroke="#333" stroke-width="2"/>
  <text x="410" y="285" text-anchor="middle">Admin Dashboard</text>
  
  <rect x="100" y="350" width="120" height="60" rx="10" ry="10" fill="#dfd" stroke="#333" stroke-width="2"/>
  <text x="160" y="385" text-anchor="middle">Student Management</text>
  
  <rect x="250" y="350" width="120" height="60" rx="10" ry="10" fill="#dfd" stroke="#333" stroke-width="2"/>
  <text x="310" y="385" text-anchor="middle">Teacher Management</text>
  
  <rect x="400" y="350" width="120" height="60" rx="10" ry="10" fill="#dfd" stroke="#333" stroke-width="2"/>
  <text x="460" y="385" text-anchor="middle">Score Input</text>
  
  <rect x="550" y="350" width="120" height="60" rx="10" ry="10" fill="#dfd" stroke="#333" stroke-width="2"/>
  <text x="610" y="385" text-anchor="middle">Reports</text>
  
  <rect x="700" y="350" width="120" height="60" rx="10" ry="10" fill="#dfd" stroke="#333" stroke-width="2"/>
  <text x="760" y="385" text-anchor="middle">Data Import</text>
  
  <!-- Student Management Actions -->
  <rect x="50" y="450" width="120" height="40" rx="10" ry="10" fill="#fff" stroke="#333" stroke-width="2"/>
  <text x="110" y="475" text-anchor="middle">Add Student Form</text>
  
  <rect x="50" y="500" width="120" height="40" rx="10" ry="10" fill="#fff" stroke="#333" stroke-width="2"/>
  <text x="110" y="525" text-anchor="middle">Edit Student Form</text>
  
  <rect x="50" y="550" width="120" height="40" rx="10" ry="10" fill="#fff" stroke="#333" stroke-width="2"/>
  <text x="110" y="575" text-anchor="middle">Confirm Delete</text>
  
  <!-- Teacher Management Actions -->
  <rect x="200" y="450" width="120" height="40" rx="10" ry="10" fill="#fff" stroke="#333" stroke-width="2"/>
  <text x="260" y="475" text-anchor="middle">Add Teacher Form</text>
  
  <rect x="200" y="500" width="120" height="40" rx="10" ry="10" fill="#fff" stroke="#333" stroke-width="2"/>
  <text x="260" y="525" text-anchor="middle">Edit Teacher Form</text>
  
  <rect x="200" y="550" width="120" height="40" rx="10" ry="10" fill="#fff" stroke="#333" stroke-width="2"/>
  <text x="260" y="575" text-anchor="middle">Confirm Delete</text>
  
  <!-- Score Input Actions -->
  <rect x="350" y="450" width="120" height="40" rx="10" ry="10" fill="#fff" stroke="#333" stroke-width="2"/>
  <text x="410" y="475" text-anchor="middle">Score Form</text>
  
  <rect x="350" y="520" width="120" height="40" rx="10" ry="10" fill="#fff" stroke="#333" stroke-width="2"/>
  <text x="410" y="545" text-anchor="middle">Scores Saved</text>
  
  <!-- Reports Actions -->
  <rect x="500" y="450" width="120" height="40" rx="10" ry="10" fill="#fff" stroke="#333" stroke-width="2"/>
  <text x="560" y="475" text-anchor="middle">Report View</text>
  
  <rect x="500" y="520" width="120" height="40" rx="10" ry="10" fill="#fff" stroke="#333" stroke-width="2"/>
  <text x="560" y="545" text-anchor="middle">Download Report</text>
  
  <!-- Data Import Actions -->
  <rect x="650" y="450" width="120" height="40" rx="10" ry="10" fill="#fff" stroke="#333" stroke-width="2"/>
  <text x="710" y="475" text-anchor="middle">Upload Excel</text>
  
  <rect x="650" y="520" width="120" height="40" rx="10" ry="10" fill="#fff" stroke="#333" stroke-width="2"/>
  <text x="710" y="545" text-anchor="middle">Import Results</text>
  
  <!-- Edges -->
  <path d="M 410 110 L 410 150" stroke="#333" stroke-width="2" fill="none" marker-end="url(#arrowhead)"/>
  <text x="440" y="130" text-anchor="start">Enter Admin Credentials</text>
  
  <path d="M 410 210 L 410 250" stroke="#333" stroke-width="2" fill="none" marker-end="url(#arrowhead)"/>
  <text x="440" y="230" text-anchor="start">Success</text>
  
  <path d="M 350 180 L 300 180 L 300 80 L 350 80" stroke="#333" stroke-width="2" fill="none" marker-end="url(#arrowhead)"/>
  <text x="290" y="160" text-anchor="end">Failure</text>
  
  <!-- Dashboard to Management Pages -->
  <path d="M 350 280 L 160 280 L 160 350" stroke="#333" stroke-width="2" fill="none" marker-end="url(#arrowhead)"/>
  <text x="200" y="320" text-anchor="middle">Manage Students</text>
  
  <path d="M 380 310 L 310 310 L 310 350" stroke="#333" stroke-width="2" fill="none" marker-end="url(#arrowhead)"/>
  <text x="340" y="330" text-anchor="middle">Manage Teachers</text>
  
  <path d="M 440 310 L 460 310 L 460 350" stroke="#333" stroke-width="2" fill="none" marker-end="url(#arrowhead)"/>
  <text x="480" y="330" text-anchor="middle">Input Scores</text>
  
  <path d="M 470 280 L 610 280 L 610 350" stroke="#333" stroke-width="2" fill="none" marker-end="url(#arrowhead)"/>
  <text x="550" y="320" text-anchor="middle">Generate Reports</text>
  
  <path d="M 470 280 L 760 280 L 760 350" stroke="#333" stroke-width="2" fill="none" marker-end="url(#arrowhead)"/>
  <text x="650" y="320" text-anchor="middle">Import Data</text>
  
  <!-- Student Management Actions -->
  <path d="M 100 410 L 80 410 L 80 450" stroke="#333" stroke-width="2" fill="none" marker-end="url(#arrowhead)"/>
  <text x="60" y="430" text-anchor="end">Add Student</text>
  
  <path d="M 160 410 L 110 410 L 110 500" stroke="#333" stroke-width="2" fill="none" marker-end="url(#arrowhead)"/>
  <text x="140" y="430" text-anchor="end">Edit Student</text>
  
  <path d="M 220 410 L 140 410 L 140 550" stroke="#333" stroke-width="2" fill="none" marker-end="url(#arrowhead)"/>
  <text x="180" y="430" text-anchor="end">Delete Student</text>
  
  <!-- Teacher Management Actions -->
  <path d="M 250 410 L 230 410 L 230 450" stroke="#333" stroke-width="2" fill="none" marker-end="url(#arrowhead)"/>
  <text x="210" y="430" text-anchor="end">Add Teacher</text>
  
  <path d="M 310 410 L 260 410 L 260 500" stroke="#333" stroke-width="2" fill="none" marker-end="url(#arrowhead)"/>
  <text x="290" y="430" text-anchor="end">Edit Teacher</text>
  
  <path d="M 370 410 L 290 410 L 290 550" stroke="#333" stroke-width="2" fill="none" marker-end="url(#arrowhead)"/>
  <text x="330" y="430" text-anchor="end">Delete Teacher</text>
  
  <!-- Score Input Actions -->
  <path d="M 460 410 L 410 410 L 410 450" stroke="#333" stroke-width="2" fill="none" marker-end="url(#arrowhead)"/>
  <text x="430" y="430" text-anchor="middle">Select Student</text>
  
  <path d="M 410 490 L 410 520" stroke="#333" stroke-width="2" fill="none" marker-end="url(#arrowhead)"/>
  <text x="440" y="505" text-anchor="start">Submit Scores</text>
  
  <!-- Reports Actions -->
  <path d="M 610 410 L 560 410 L 560 450" stroke="#333" stroke-width="2" fill="none" marker-end="url(#arrowhead)"/>
  <text x="580" y="430" text-anchor="middle">Generate Report</text>
  
  <path d="M 560 490 L 560 520" stroke="#333" stroke-width="2" fill="none" marker-end="url(#arrowhead)"/>
  <text x="590" y="505" text-anchor="start">Export</text>
  
  <!-- Data Import Actions -->
  <path d="M 760 410 L 710 410 L 710 450" stroke="#333" stroke-width="2" fill="none" marker-end="url(#arrowhead)"/>
  <text x="730" y="430" text-anchor="middle">Excel Import</text>
  
  <path d="M 710 490 L 710 520" stroke="#333" stroke-width="2" fill="none" marker-end="url(#arrowhead)"/>
  <text x="740" y="505" text-anchor="start">Process Data</text>
  
  <!-- Arrow Definitions -->
  <defs>
    <marker id="arrowhead" markerWidth="10" markerHeight="7" refX="9" refY="3.5" orient="auto">
      <polygon points="0 0, 10 3.5, 0 7" fill="#333"/>
    </marker>
  </defs>
</svg>
