<?xml version="1.0" encoding="UTF-8"?>
<svg width="800" height="600" xmlns="http://www.w3.org/2000/svg">
  <rect width="100%" height="100%" fill="white"/>
  
  <!-- Nodes -->
  <rect x="350" y="50" width="120" height="60" rx="10" ry="10" fill="#f9f" stroke="#333" stroke-width="2"/>
  <text x="410" y="85" text-anchor="middle">Login Page</text>
  
  <rect x="350" y="150" width="120" height="60" rx="10" ry="10" fill="#fff" stroke="#333" stroke-width="2"/>
  <text x="410" y="185" text-anchor="middle">Authentication</text>
  
  <rect x="350" y="250" width="120" height="60" rx="10" ry="10" fill="#bbf" stroke="#333" stroke-width="2"/>
  <text x="410" y="285" text-anchor="middle">Student Dashboard</text>
  
  <rect x="150" y="350" width="120" height="60" rx="10" ry="10" fill="#dfd" stroke="#333" stroke-width="2"/>
  <text x="210" y="385" text-anchor="middle">Quadrant Detail</text>
  
  <rect x="300" y="350" width="120" height="60" rx="10" ry="10" fill="#dfd" stroke="#333" stroke-width="2"/>
  <text x="360" y="385" text-anchor="middle">Eligibility Page</text>
  
  <rect x="450" y="350" width="120" height="60" rx="10" ry="10" fill="#dfd" stroke="#333" stroke-width="2"/>
  <text x="510" y="385" text-anchor="middle">Improvement Plan</text>
  
  <rect x="600" y="350" width="120" height="60" rx="10" ry="10" fill="#dfd" stroke="#333" stroke-width="2"/>
  <text x="660" y="385" text-anchor="middle">Feedback Page</text>
  
  <rect x="0" y="350" width="120" height="60" rx="10" ry="10" fill="#dfd" stroke="#333" stroke-width="2"/>
  <text x="60" y="385" text-anchor="middle">Settings Page</text>
  
  <rect x="600" y="450" width="120" height="60" rx="10" ry="10" fill="#fff" stroke="#333" stroke-width="2"/>
  <text x="660" y="485" text-anchor="middle">Feedback Submitted</text>
  
  <rect x="0" y="450" width="120" height="60" rx="10" ry="10" fill="#fff" stroke="#333" stroke-width="2"/>
  <text x="60" y="485" text-anchor="middle">Settings Saved</text>
  
  <!-- Edges -->
  <path d="M 410 110 L 410 150" stroke="#333" stroke-width="2" fill="none" marker-end="url(#arrowhead)"/>
  <text x="440" y="130" text-anchor="start">Enter Student Credentials</text>
  
  <path d="M 410 210 L 410 250" stroke="#333" stroke-width="2" fill="none" marker-end="url(#arrowhead)"/>
  <text x="440" y="230" text-anchor="start">Success</text>
  
  <path d="M 350 180 L 300 180 L 300 80 L 350 80" stroke="#333" stroke-width="2" fill="none" marker-end="url(#arrowhead)"/>
  <text x="290" y="160" text-anchor="end">Failure</text>
  
  <path d="M 350 280 L 210 280 L 210 350" stroke="#333" stroke-width="2" fill="none" marker-end="url(#arrowhead)"/>
  <text x="250" y="270" text-anchor="middle">View Quadrant Details</text>
  
  <path d="M 410 310 L 410 350" stroke="#333" stroke-width="2" fill="none" marker-end="url(#arrowhead)"/>
  <text x="440" y="330" text-anchor="start">Check Eligibility</text>
  
  <path d="M 470 280 L 510 280 L 510 350" stroke="#333" stroke-width="2" fill="none" marker-end="url(#arrowhead)"/>
  <text x="540" y="320" text-anchor="start">View Improvement Plan</text>
  
  <path d="M 470 280 L 660 280 L 660 350" stroke="#333" stroke-width="2" fill="none" marker-end="url(#arrowhead)"/>
  <text x="600" y="320" text-anchor="middle">Provide Feedback</text>
  
  <path d="M 350 280 L 60 280 L 60 350" stroke="#333" stroke-width="2" fill="none" marker-end="url(#arrowhead)"/>
  <text x="150" y="320" text-anchor="middle">Adjust Settings</text>
  
  <path d="M 210 350 L 210 320 L 350 320" stroke="#333" stroke-width="2" fill="none" marker-end="url(#arrowhead)"/>
  <text x="250" y="340" text-anchor="middle">Back</text>
  
  <path d="M 360 350 L 360 320 L 410 320" stroke="#333" stroke-width="2" fill="none" marker-end="url(#arrowhead)"/>
  <text x="380" y="340" text-anchor="middle">Back</text>
  
  <path d="M 510 350 L 510 320 L 470 320" stroke="#333" stroke-width="2" fill="none" marker-end="url(#arrowhead)"/>
  <text x="490" y="340" text-anchor="middle">Back</text>
  
  <path d="M 660 410 L 660 450" stroke="#333" stroke-width="2" fill="none" marker-end="url(#arrowhead)"/>
  <text x="690" y="430" text-anchor="start">Submit Feedback</text>
  
  <path d="M 600 480 L 410 480 L 410 310" stroke="#333" stroke-width="2" fill="none" marker-end="url(#arrowhead)"/>
  <text x="500" y="460" text-anchor="middle">Back</text>
  
  <path d="M 60 410 L 60 450" stroke="#333" stroke-width="2" fill="none" marker-end="url(#arrowhead)"/>
  <text x="90" y="430" text-anchor="start">Save Settings</text>
  
  <path d="M 120 480 L 300 480 L 300 280 L 350 280" stroke="#333" stroke-width="2" fill="none" marker-end="url(#arrowhead)"/>
  <text x="200" y="460" text-anchor="middle">Back</text>
  
  <!-- Arrow Definitions -->
  <defs>
    <marker id="arrowhead" markerWidth="10" markerHeight="7" refX="9" refY="3.5" orient="auto">
      <polygon points="0 0, 10 3.5, 0 7" fill="#333"/>
    </marker>
  </defs>
</svg>
