<?xml version="1.0" encoding="UTF-8"?>
<svg width="800" height="600" xmlns="http://www.w3.org/2000/svg">
  <rect width="100%" height="100%" fill="white"/>
  
  <!-- Nodes -->
  <rect x="350" y="50" width="120" height="60" rx="10" ry="10" fill="#f9f" stroke="#333" stroke-width="2"/>
  <text x="410" y="85" text-anchor="middle">Login Page</text>
  
  <rect x="350" y="150" width="120" height="60" rx="10" ry="10" fill="#fff" stroke="#333" stroke-width="2"/>
  <text x="410" y="185" text-anchor="middle">Authentication</text>
  
  <rect x="350" y="250" width="120" height="60" rx="10" ry="10" fill="#bbf" stroke="#333" stroke-width="2"/>
  <text x="410" y="285" text-anchor="middle">Teacher Dashboard</text>
  
  <rect x="150" y="350" width="120" height="60" rx="10" ry="10" fill="#dfd" stroke="#333" stroke-width="2"/>
  <text x="210" y="385" text-anchor="middle">My Students Page</text>
  
  <rect x="350" y="350" width="120" height="60" rx="10" ry="10" fill="#dfd" stroke="#333" stroke-width="2"/>
  <text x="410" y="385" text-anchor="middle">Feedback Page</text>
  
  <rect x="550" y="350" width="120" height="60" rx="10" ry="10" fill="#dfd" stroke="#333" stroke-width="2"/>
  <text x="610" y="385" text-anchor="middle">Settings Page</text>
  
  <rect x="150" y="450" width="120" height="60" rx="10" ry="10" fill="#ffd" stroke="#333" stroke-width="2"/>
  <text x="210" y="485" text-anchor="middle">Student Details</text>
  
  <rect x="150" y="550" width="120" height="60" rx="10" ry="10" fill="#ffd" stroke="#333" stroke-width="2"/>
  <text x="210" y="585" text-anchor="middle">Intervention Scoring</text>
  
  <rect x="350" y="550" width="120" height="60" rx="10" ry="10" fill="#fff" stroke="#333" stroke-width="2"/>
  <text x="410" y="585" text-anchor="middle">Scores Submitted</text>
  
  <rect x="350" y="450" width="120" height="60" rx="10" ry="10" fill="#fff" stroke="#333" stroke-width="2"/>
  <text x="410" y="485" text-anchor="middle">Feedback Submitted</text>
  
  <rect x="550" y="450" width="120" height="60" rx="10" ry="10" fill="#fff" stroke="#333" stroke-width="2"/>
  <text x="610" y="485" text-anchor="middle">Settings Saved</text>
  
  <!-- Edges -->
  <path d="M 410 110 L 410 150" stroke="#333" stroke-width="2" fill="none" marker-end="url(#arrowhead)"/>
  <text x="440" y="130" text-anchor="start">Enter Teacher Credentials</text>
  
  <path d="M 410 210 L 410 250" stroke="#333" stroke-width="2" fill="none" marker-end="url(#arrowhead)"/>
  <text x="440" y="230" text-anchor="start">Success</text>
  
  <path d="M 350 180 L 300 180 L 300 80 L 350 80" stroke="#333" stroke-width="2" fill="none" marker-end="url(#arrowhead)"/>
  <text x="290" y="160" text-anchor="end">Failure</text>
  
  <path d="M 350 280 L 210 280 L 210 350" stroke="#333" stroke-width="2" fill="none" marker-end="url(#arrowhead)"/>
  <text x="250" y="320" text-anchor="middle">View Student List</text>
  
  <path d="M 410 310 L 410 350" stroke="#333" stroke-width="2" fill="none" marker-end="url(#arrowhead)"/>
  <text x="440" y="330" text-anchor="start">Provide Feedback</text>
  
  <path d="M 470 280 L 610 280 L 610 350" stroke="#333" stroke-width="2" fill="none" marker-end="url(#arrowhead)"/>
  <text x="550" y="320" text-anchor="middle">Adjust Settings</text>
  
  <path d="M 210 410 L 210 450" stroke="#333" stroke-width="2" fill="none" marker-end="url(#arrowhead)"/>
  <text x="240" y="430" text-anchor="start">Select Student</text>
  
  <path d="M 210 510 L 210 550" stroke="#333" stroke-width="2" fill="none" marker-end="url(#arrowhead)"/>
  <text x="240" y="530" text-anchor="start">Score Student</text>
  
  <path d="M 270 580 L 350 580" stroke="#333" stroke-width="2" fill="none" marker-end="url(#arrowhead)"/>
  <text x="310" y="560" text-anchor="middle">Submit Scores</text>
  
  <path d="M 350 580 L 300 580 L 300 480 L 210 480 L 210 410" stroke="#333" stroke-width="2" fill="none" marker-end="url(#arrowhead)"/>
  <text x="280" y="500" text-anchor="middle">Back</text>
  
  <path d="M 410 410 L 410 450" stroke="#333" stroke-width="2" fill="none" marker-end="url(#arrowhead)"/>
  <text x="440" y="430" text-anchor="start">Submit Feedback</text>
  
  <path d="M 350 480 L 300 480 L 300 280 L 350 280" stroke="#333" stroke-width="2" fill="none" marker-end="url(#arrowhead)"/>
  <text x="320" y="460" text-anchor="middle">Back</text>
  
  <path d="M 610 410 L 610 450" stroke="#333" stroke-width="2" fill="none" marker-end="url(#arrowhead)"/>
  <text x="640" y="430" text-anchor="start">Save Settings</text>
  
  <path d="M 550 480 L 500 480 L 500 280 L 470 280" stroke="#333" stroke-width="2" fill="none" marker-end="url(#arrowhead)"/>
  <text x="520" y="460" text-anchor="middle">Back</text>
  
  <!-- Arrow Definitions -->
  <defs>
    <marker id="arrowhead" markerWidth="10" markerHeight="7" refX="9" refY="3.5" orient="auto">
      <polygon points="0 0, 10 3.5, 0 7" fill="#333"/>
    </marker>
  </defs>
</svg>
